HIERARCHY
ROOT SimulationBone
{
	OFFSET 0.000000 0.000000 0.000000
	CHANNELS 6 Xposition Yposition Zposition Zrotation Yrotation Xrotation 
	JOINT Hips
	{
		OFFSET 0.000000 0.000000 0.000000
		CHANNELS 6 Xposition Yposition Zposition Zrotation Yrotation Xrotation 
		JOINT LeftUpLeg
		{
			OFFSET 0.103459 1.857842 10.548500
			CHANNELS 3 Zrotation Yrotation Xrotation
			JOINT LeftLeg
			{
				OFFSET 43.500008 -0.000042 -0.000011
				CHANNELS 3 Zrotation Yrotation Xrotation
				JOINT LeftFoot
				{
					OFFSET 42.372200 0.000000 0.000010
					CHANNELS 3 Zrotation Yrotation Xrotation
					JOINT LeftToe
					{
						OFFSET 17.300018 0.000008 -0.000006
						CHANNELS 3 Zrotation Yrotation Xrotation
						End Site
						{
							OFFSET 0.000000 0.000000 0.000000
						}
					}
				}
			}
		}
		JOINT RightUpLeg
		{
			OFFSET 0.103459 1.857820 -10.548510
			CHANNELS 3 Zrotation Yrotation Xrotation
			JOINT RightLeg
			{
				OFFSET 43.500038 -0.000004 -0.000004
				CHANNELS 3 Zrotation Yrotation Xrotation
				JOINT RightFoot
				{
					OFFSET 42.372261 -0.000019 0.000015
					CHANNELS 3 Zrotation Yrotation Xrotation
					JOINT RightToe
					{
						OFFSET 17.300003 -0.000001 0.000006
						CHANNELS 3 Zrotation Yrotation Xrotation
						End Site
						{
							OFFSET 0.000000 0.000000 0.000000
						}
					}
				}
			}
		}
		JOINT Spine
		{
			OFFSET 6.901967 -2.603730 -0.000004
			CHANNELS 3 Zrotation Yrotation Xrotation
			JOINT Spine1
			{
				OFFSET 12.588097 -0.000009 0.000008
				CHANNELS 3 Zrotation Yrotation Xrotation
				JOINT Spine2
				{
					OFFSET 12.343205 0.000003 -0.000002
					CHANNELS 3 Zrotation Yrotation Xrotation
					JOINT Neck
					{
						OFFSET 25.832899 -0.000006 0.000003
						CHANNELS 3 Zrotation Yrotation Xrotation
						JOINT Head
						{
							OFFSET 11.766611 0.000013 0.000001
							CHANNELS 3 Zrotation Yrotation Xrotation
							End Site
							{
								OFFSET 0.000000 0.000000 0.000000
							}
						}
					}
					JOINT LeftShoulder
					{
						OFFSET 19.745903 -1.480350 6.000102
						CHANNELS 3 Zrotation Yrotation Xrotation
						JOINT LeftArm
						{
							OFFSET 11.284125 -0.000002 -0.000024
							CHANNELS 3 Zrotation Yrotation Xrotation
							JOINT LeftForeArm
							{
								OFFSET 33.000050 0.000009 0.000033
								CHANNELS 3 Zrotation Yrotation Xrotation
								JOINT LeftHand
								{
									OFFSET 25.200012 0.000010 -0.000003
									CHANNELS 3 Zrotation Yrotation Xrotation
									End Site
									{
										OFFSET 0.000000 0.000000 0.000000
									}
								}
							}
						}
					}
					JOINT RightShoulder
					{
						OFFSET 19.746105 -1.480362 -6.000072
						CHANNELS 3 Zrotation Yrotation Xrotation
						JOINT RightArm
						{
							OFFSET 11.284140 -0.000003 -0.000004
							CHANNELS 3 Zrotation Yrotation Xrotation
							JOINT RightForeArm
							{
								OFFSET 33.000099 0.000013 0.000007
								CHANNELS 3 Zrotation Yrotation Xrotation
								JOINT RightHand
								{
									OFFSET 25.199776 0.000126 0.000428
									CHANNELS 3 Zrotation Yrotation Xrotation
									End Site
									{
										OFFSET 0.000000 0.000000 0.000000
									}
								}
							}
						}
					}
				}
			}
		}
	}
}
MOTION
Frames: 15
Frame Time: 0.016667
297.363874 0.000000 -496.236426 0.000000 -51.503241 0.000000 -0.398860 88.821968 -2.191917 92.598748 -4.015963 -179.398076 -165.713544 1.401993 173.674034 -7.781074 -0.654825 -11.738483 80.439936 5.723038 -10.918894 21.454551 0.003091 -0.000000 151.345708 3.073105 -169.561222 -26.552346 5.544083 8.875188 69.907170 -6.496571 0.192223 21.454557 -0.003116 -0.000017 7.466163 -0.100597 -0.836903 4.920693 -0.165832 -1.677293 4.602744 -0.175822 -1.676257 1.645575 -6.682598 -13.475916 -14.439904 16.030794 -20.323855 -167.339183 -79.286244 -14.421958 -30.767061 48.580949 28.494343 -43.683649 -15.442767 1.587565 7.332818 4.014941 37.645710 -157.319323 68.465964 24.773401 9.701614 -50.192392 -44.454012 -52.053045 17.932829 -2.044483 -1.271738 6.096591 -18.475559 
298.661704 0.000000 -495.129495 0.000000 -52.803924 0.000000 -0.387814 88.396904 -2.327681 92.532395 -4.037667 -179.962635 -163.956437 2.270554 173.703349 -6.954517 -0.608327 -12.725414 81.055802 6.367933 -11.372004 21.454554 0.003093 -0.000000 151.479052 2.125005 -170.448591 -23.738435 5.718194 9.811172 70.462857 -7.282475 -0.185612 21.454557 -0.003115 -0.000016 7.359184 0.011519 -0.909241 4.705060 0.059635 -1.817262 4.387132 0.048797 -1.817586 1.633172 -5.854957 -12.975226 -14.465681 15.173125 -19.396166 -167.669563 -79.367553 -14.085834 -30.818347 49.621869 28.963569 -44.139183 -15.543164 1.606969 7.057206 3.951164 37.501470 -156.244118 68.134245 25.891593 9.007266 -50.419560 -43.434838 -52.356858 17.970556 -2.057147 -1.497867 5.829641 -19.565734 
299.936803 0.000000 -493.991409 0.000000 -54.102449 0.000000 -0.297995 87.909508 -2.459334 92.609370 -4.045692 179.475383 -162.183457 3.070299 173.354969 -6.477469 -0.639216 -13.400934 81.721040 6.804700 -11.820323 21.454558 0.003095 -0.000001 151.646673 1.189411 -171.022254 -22.099497 5.693717 10.512355 71.313048 -7.863145 -0.471401 21.454558 -0.003113 -0.000016 7.267717 0.136312 -1.003702 4.519905 0.311310 -2.001367 4.202013 0.299356 -2.003207 1.723358 -4.954882 -12.449962 -14.465490 14.124126 -18.359052 -168.130296 -79.378096 -13.617410 -30.493795 50.878604 29.301422 -44.658030 -15.807301 1.639684 6.716055 4.078564 37.663803 -155.052000 67.683395 27.134473 8.203352 -50.581989 -42.404750 -52.738635 18.035241 -2.074826 -1.847611 5.431471 -20.905332 
301.187391 0.000000 -492.825695 0.000000 -55.401036 0.000000 -0.120157 87.368916 -2.585933 92.822080 -4.015131 178.995545 -160.446749 3.741966 172.566028 -6.445922 -0.752648 -13.674067 82.397577 6.964405 -12.272963 21.454555 0.003094 -0.000001 151.874424 0.279991 -171.234837 -21.614158 5.516458 11.084634 72.365896 -8.136150 -0.106687 21.454557 -0.003106 -0.000017 7.190558 0.284560 -1.134869 4.362312 0.611228 -2.258340 4.044478 0.597715 -2.261982 1.871799 -4.010119 -11.897830 -14.330739 12.891295 -17.205600 -168.682409 -79.300013 -13.056180 -29.668394 52.338751 29.311619 -45.442725 -16.049136 1.677762 6.391682 4.294983 38.527765 -153.914925 67.114838 28.324850 7.350173 -50.573515 -41.438635 -53.220399 18.050081 -2.092857 -2.222585 5.155713 -22.055493 
302.412858 0.000000 -491.636191 0.000000 -56.702452 0.000000 0.125447 86.816994 -2.706018 93.088940 -3.960349 178.616357 -158.745877 4.346605 171.515162 -6.625484 -0.872569 -13.679464 82.816623 6.900766 -12.817035 21.454553 0.003092 -0.000001 152.107683 -0.537696 -171.174444 -22.261965 5.257513 11.326386 73.138348 -8.476897 -0.769191 21.454558 -0.003103 -0.000019 7.107597 0.449935 -1.299133 4.191820 0.946092 -2.581375 3.874049 0.930621 -2.587027 2.118221 -3.050512 -11.335111 -14.099095 11.562387 -15.998825 -168.856318 -79.140119 -12.879443 -28.417718 53.895016 29.203197 -46.579546 -16.146178 1.719296 6.124120 4.454358 40.043673 -152.788312 66.469854 29.508322 6.611753 -50.480769 -40.630575 -53.855252 18.071116 -2.116015 -2.593026 4.981166 -23.045576 
303.612288 0.000000 -490.424545 0.000000 -58.011189 0.000000 0.415629 86.299034 -2.815772 93.337330 -3.882731 178.339573 -157.055850 4.934091 170.427312 -6.753712 -0.927482 -13.590445 82.717099 6.694566 -13.512455 21.454554 0.003091 -0.000000 152.279993 -1.230968 -171.030497 -23.963386 4.978596 11.106014 73.291555 -9.213097 -3.902123 21.454559 -0.003112 -0.000019 7.002806 0.627488 -1.483914 3.976244 1.304957 -2.945830 3.658522 1.287283 -2.953637 2.502498 -2.104916 -10.785749 -13.839593 10.219242 -14.809599 -168.337259 -78.906892 -13.407632 -26.867388 55.421293 29.270631 -48.077811 -16.042669 1.760275 5.908140 4.431677 41.943428 -151.607379 65.794443 30.751112 6.155057 -50.416686 -40.028030 -54.687997 18.155183 -2.150524 -2.943625 4.827379 -23.999946 
304.783863 0.000000 -489.192271 0.000000 -59.333524 0.000000 0.751297 85.841301 -2.903627 93.607940 -3.700573 178.156508 -155.315565 5.428405 169.452554 -6.787290 -0.956223 -13.504889 82.099453 6.425372 -14.243393 21.454557 0.003090 0.000000 152.348693 -1.951905 -171.270764 -26.416229 4.735159 10.867079 73.329197 -10.138278 -7.726322 21.454560 -0.003120 -0.000018 6.895190 0.835291 -1.658624 3.753230 1.723193 -3.289997 3.435536 1.703442 -3.300321 2.984049 -1.192283 -10.292412 -13.625359 8.831441 -13.685946 -167.722493 -78.588629 -14.033805 -25.189101 56.822490 29.724890 -49.760546 -15.886421 1.801630 5.628941 4.244901 43.525257 -150.431897 65.125688 31.990375 6.096415 -50.394487 -39.513531 -55.696770 18.230171 -2.192177 -3.270608 4.658458 -24.962388 
305.925250 0.000000 -487.942813 0.000000 -60.675453 0.000000 1.135698 85.441759 -2.968226 93.962717 -3.372164 178.055525 -153.536266 5.784530 168.629514 -6.873241 -0.962394 -13.458011 81.073402 6.139212 -14.909675 21.454556 0.003089 -0.000000 152.283136 -2.795890 -172.252777 -29.377574 4.620294 11.018241 73.830363 -10.885280 -10.143921 21.454559 -0.003115 -0.000017 6.810788 1.084674 -1.799021 3.574829 2.223564 -3.564800 3.257127 2.202156 -3.578141 3.488022 -0.335684 -9.883355 -13.501509 7.377828 -12.656175 -167.548295 -78.196084 -14.212131 -23.578855 58.038933 30.650119 -51.422657 -15.827924 1.851065 5.162585 3.926486 44.189353 -149.390226 64.489345 33.091915 6.487079 -50.387633 -38.924079 -56.837895 18.217949 -2.233074 -3.566384 4.466773 -25.928119 
307.034815 0.000000 -486.680768 0.000000 -62.039807 0.000000 1.545414 85.004204 -3.054549 94.420054 -3.090951 178.019013 -152.071429 6.221504 167.643592 -7.699895 -0.696515 -13.313446 79.935212 5.740483 -15.645938 21.454553 0.003089 0.000000 152.029778 -3.448104 -173.612453 -33.045861 4.745284 11.277172 75.148862 -11.152205 -11.007387 21.454558 -0.003106 -0.000017 6.768518 1.336097 -1.924431 3.479818 2.728550 -3.809449 3.162086 2.705662 -3.825837 3.887355 0.409598 -9.505276 -13.393789 5.977667 -11.700483 -167.429697 -77.833388 -14.333936 -22.258397 59.140052 31.745748 -52.921186 -15.825564 1.902037 4.429890 3.421964 44.176928 -148.795602 63.868776 33.730260 7.159529 -50.313648 -38.069568 -58.051006 18.144512 -2.272460 -3.798741 4.314397 -26.779161 
308.112564 0.000000 -485.411077 0.000000 -63.425881 0.000000 1.944197 84.456875 -3.193270 94.969836 -3.016219 178.052568 -151.279939 6.876120 166.310125 -9.902099 0.002048 -13.004825 78.934666 5.164555 -16.596421 21.454548 0.003092 0.000001 151.608802 -3.625021 -174.804181 -37.469863 5.116305 11.245659 77.419453 -10.790904 -10.734494 21.454557 -0.003106 -0.000018 6.780754 1.555854 -2.061428 3.493538 3.172280 -4.077144 3.175786 3.147767 -4.096204 4.092977 0.979078 -9.102457 -13.244951 4.769216 -10.806247 -167.070206 -77.601108 -14.701063 -21.381698 60.207726 32.660723 -54.179986 -15.799492 1.943251 3.438608 2.704491 43.903009 -148.813387 63.273417 33.731882 7.900005 -50.156409 -36.826805 -59.244069 18.055673 -2.311104 -3.941556 4.288064 -27.369504 
309.159566 0.000000 -484.138803 0.000000 -64.832388 0.000000 2.289646 83.919952 -3.322551 95.567893 -2.937000 178.283711 -151.144477 7.269107 165.295195 -13.374290 0.648013 -12.849033 77.928100 4.610540 -17.716735 21.454548 0.003096 0.000001 151.463118 -3.560193 -175.274662 -41.635429 5.439768 10.821093 80.018097 -10.073072 -10.137493 21.454558 -0.003108 -0.000019 6.840770 1.784590 -2.222727 3.600775 3.636475 -4.391773 3.283002 3.610052 -4.413621 4.215536 1.302304 -8.678899 -13.191551 3.839296 -10.022533 -167.215693 -77.499283 -14.553039 -20.726258 61.198315 33.296041 -55.334640 -15.706059 1.977322 2.502717 1.944304 43.619650 -148.927588 62.845634 33.627506 8.514945 -50.215058 -35.364922 -60.212474 17.972840 -2.342086 -4.008461 4.497173 -27.551384 
310.177376 0.000000 -482.868995 0.000000 -66.255796 0.000000 2.553675 83.524637 -3.375951 96.173829 -2.638559 178.824512 -151.579001 6.941724 165.155395 -17.896442 0.762406 -13.055761 76.707746 4.256454 -18.858567 21.454554 0.003097 -0.000000 151.993361 -3.548009 -174.686487 -44.568469 5.433595 10.067768 82.286401 -9.269614 -9.923212 21.454560 -0.003105 -0.000018 6.934717 2.061869 -2.410608 3.771874 4.200139 -4.756708 3.454047 4.171509 -4.781941 4.398908 1.387840 -8.261253 -13.383731 3.185562 -9.380483 -168.575949 -77.508745 -13.166024 -20.076952 62.043955 33.644115 -56.515872 -15.535801 2.008360 1.918671 1.332026 43.489733 -148.712615 62.666900 33.857397 8.839749 -50.709106 -33.871616 -60.785744 17.921163 -2.360331 -4.020171 5.010568 -27.218103 
311.167898 0.000000 -481.605896 0.000000 -67.688086 0.000000 2.745854 83.254288 -3.372557 96.741113 -2.254841 179.587827 -152.703139 6.128606 165.148619 -23.489377 0.694811 -13.261085 75.239485 3.955985 -19.627599 21.454560 0.003096 -0.000002 152.947947 -3.638109 -173.588465 -46.551215 5.112165 9.228534 84.216109 -8.477815 -9.879480 21.454562 -0.003101 -0.000016 7.040623 2.348476 -2.599501 3.964817 4.783502 -5.122291 3.646905 4.752661 -5.151030 4.726645 1.572271 -7.915313 -13.844263 2.484412 -8.793860 -170.772705 -77.638899 -10.926461 -19.673807 62.726816 33.752916 -57.624556 -15.381723 2.037092 1.628795 0.915032 43.533934 -148.625311 62.442025 33.956069 8.877947 -51.252806 -32.357429 -61.042001 17.963669 -2.373235 -3.996815 5.716031 -26.431176 
312.133709 0.000000 -480.352014 0.000000 -69.119114 0.000000 2.880106 83.069663 -3.347905 97.225024 -1.950927 -179.573754 -154.595441 5.153021 164.506003 -30.125052 0.919254 -13.160171 73.489658 3.575719 -19.631625 21.454556 0.003095 -0.000002 153.994466 -3.821772 -172.690904 -48.057549 4.619649 8.544661 85.923907 -7.788311 -9.662629 21.454561 -0.003101 -0.000016 7.142938 2.599611 -2.758134 4.151862 5.295350 -5.427830 3.833849 5.262654 -5.459651 5.225576 2.140612 -7.683074 -14.530623 1.461958 -8.171397 -173.259883 -77.894382 -8.392719 -19.827259 63.246906 33.633725 -58.532407 -15.334127 2.066454 1.493009 0.692953 43.756454 -149.117347 61.913042 33.461443 8.680645 -51.458000 -30.809327 -61.092730 18.123183 -2.386375 -3.924368 6.506812 -25.234927 
313.077520 0.000000 -479.108429 0.000000 -70.534529 0.000000 2.969409 82.988968 -3.313965 97.646902 -1.689904 -178.834871 -157.009301 4.085297 163.620282 -37.287972 1.325110 -12.950404 71.235614 3.290580 -18.765253 21.454551 0.003094 -0.000002 155.136614 -4.153792 -172.461594 -49.078392 4.306070 8.132898 87.343816 -7.303263 -9.327754 21.454560 -0.003101 -0.000017 7.257961 2.827625 -2.859075 4.367164 5.759993 -5.617296 4.048992 5.726142 -5.651924 5.741469 2.842058 -7.488134 -15.232461 0.362944 -7.535665 -175.747010 -78.204862 -5.861787 -20.649274 63.624638 33.129056 -59.219413 -15.369703 2.094614 1.387168 0.628543 44.217821 -149.806798 61.342870 32.761309 8.196856 -51.522080 -29.205451 -60.934821 18.224753 -2.387080 -3.642574 7.475716 -23.432340 
